<svg data-v-0dd9719b="" version="1.0" xmlns="http://www.w3.org/2000/svg" xmlns:xlink="http://www.w3.org/1999/xlink" width="100%" height="100%" viewBox="0 0 340.000000 250.000000" preserveAspectRatio="xMidYMid meet" color-interpolation-filters="sRGB" style="margin: auto;"> <rect data-v-0dd9719b="" x="0" y="0" width="100%" height="100%" fill="#fff" fill-opacity="1" class="background"></rect> <rect data-v-0dd9719b="" x="0" y="0" width="100%" height="100%" fill="url(#watermark)" fill-opacity="1" class="watermarklayer"></rect> <g data-v-0dd9719b="" fill="#333" class="icon-text-wrapper icon-svg-group iconsvg" transform="translate(63.55000305175781,94.55643653869629)"><g class="iconsvg-imagesvg" transform="translate(0,0)"><g><rect fill="#333" fill-opacity="0" stroke-width="2" x="0" y="0" width="60" height="60.8871254173305" class="image-rect"></rect> <svg x="0" y="0" width="60" height="60.8871254173305" filtersec="colorsb9206627756" class="image-svg-svg primary" style="overflow: visible;"><svg xmlns="http://www.w3.org/2000/svg" viewBox="0.03014121763408184 -0.0006380081176757812 187.21327209472656 189.9812774658203"><path d="M76.25 15.71a16.63 16.63 0 0 1 6.09 22.73l-50.89 88.15a16.63 16.63 0 0 1-22.73 6.09A16.63 16.63 0 0 1 2.63 110l50.89-88.2a16.64 16.64 0 0 1 22.73-6.09z" fill="#ff546d"></path><path d="M175 62.88a17.34 17.34 0 0 1 6.35 23.69l-54.42 94.26a17.34 17.34 0 0 1-23.69 6.35 17.34 17.34 0 0 1-6.35-23.69l54.42-94.26A17.34 17.34 0 0 1 175 62.88z" fill="#00d4e6"></path><path d="M19.67 135c-7.07-1.8-15.42-3.26-18.28-10a17.35 17.35 0 0 1 15.31-24.07c6.38-.25 12.68 2.44 18.88 3.94 8.7 2.11 23.07 6.92 42 17.86s30.3 21 36.48 27.47c4.4 4.62 9.87 8.73 12.85 14.37a17.35 17.35 0 0 1-13.25 25.33c-7.25.88-12.68-5.62-17.77-10.84-6.13-6.29-17-15.55-35.66-26.29S28.18 137.2 19.67 135z" fill="#6d86f5"></path><path d="M91.33 10.92C86.23 5.7 80.8-.8 73.56.08A17.36 17.36 0 0 0 60.3 25.41c3 5.65 8.46 9.75 12.86 14.38 6.18 6.48 17.53 16.52 36.48 27.46S143 83 151.66 85.11c6.21 1.5 12.5 4.19 18.89 4a17.35 17.35 0 0 0 15.3-24.15c-2.86-6.71-11.2-8.16-18.27-10-8.51-2.17-22-7-40.6-17.74s-29.52-20.01-35.65-26.3z" fill="#ffaa50"></path><path d="M82.12 5.54a16.63 16.63 0 0 1 6.09 22.73L66.68 65.56A16.63 16.63 0 0 1 44 71.65a16.64 16.64 0 0 1-6.09-22.72l21.49-37.3a16.63 16.63 0 0 1 22.72-6.09z" fill="#ff546d"></path><path d="M145.43 114.1a17.35 17.35 0 0 1 6.34 23.7l-24.84 43a17.35 17.35 0 0 1-23.7 6.35 17.34 17.34 0 0 1-6.34-23.69l24.84-43a17.37 17.37 0 0 1 23.7-6.36z" fill="#00d4e6"></path></svg></svg> <!----></g></g> <g transform="translate(67,1.6173133850097656)"><g data-gra="path-name" fill-rule="" class="tp-name iconsvg-namesvg" transform="translate(0,0)"><g transform="scale(1)"><g><path d="M30.65-6.95L30.65-6.95Q34.9-8.8 35.2-9.2L35.2-9.2Q35.4-9.45 35.35-9.9L35.35-9.9Q35.3-10.2 34.75-10.28 34.2-10.35 27.15-10.4L27.15-10.4 25.45-9.45Q28.1-8.45 30.65-6.95ZM47.6-0.65L41.3 4.05Q36.4 1.8 31.5-0.2L31.5-0.2Q26.45 2.15 16.5 4.05L16.5 4.05 13.95-2.3Q20.1-2.85 23.75-3.95L23.75-3.95Q21.55-4.85 16.9-6.8L16.9-6.8 19.5-9.05 15.1-10.95Q21.65-14.05 25.6-18.2L25.6-18.2 32.25-16.85Q31.65-15.8 31.1-15.35L31.1-15.35Q37.2-15.35 40.03-15.13 42.85-14.9 44.3-13.45L44.3-13.45Q45.15-12.55 45.15-11.35L45.15-11.35Q45.15-9.3 43.5-7.65 41.85-6 37.9-4.4L37.9-4.4Q42.6-2.95 47.6-0.65L47.6-0.65ZM31.55-22.9L25.75-22.8 28.5-22.15Q25.55-18.1 20.6-15.65L20.6-15.65 14.7-18.8Q17.9-20.25 20.65-22.75L20.65-22.75 15.4-22.6 15.25-28.15Q18.7-28.15 26.6-28.35L26.6-28.35Q26.7-29.35 26.7-30.3L26.7-30.3 17.9-30.05 17.8-35.65Q20.55-35.65 26.6-35.8L26.6-35.8Q26.55-36.75 26.45-37.95L26.45-37.95 33.4-38.2Q33.4-36.85 33.45-36.05L33.45-36.05 33.45-36.05Q39.9-36.15 42.7-36.15L42.7-36.15 42.95-30.65Q41.75-30.5 33.7-30.45L33.7-30.45Q33.8-29.5 33.8-28.45L33.8-28.45Q41.95-28.65 45.65-28.7L45.65-28.7 46.05-23.15Q44.95-23.1 40.25-23L40.25-23Q44.3-20.65 46.75-17.95L46.75-17.95 39.35-15.65Q36.55-19.1 32.45-21.55L32.45-21.55 36.15-22.95Q34.1-22.95 31.55-22.9L31.55-22.9ZM8.15-18L8.15-18 15-16.1Q13.9-4.25 10.8 3.65L10.8 3.65 2.9 0.15Q6.5-6.6 8.15-18ZM2.5-33.7L8.05-37.75Q12.25-33.65 14.95-28.2L14.95-28.2 8.7-23.9Q5.9-29.75 2.5-33.7L2.5-33.7ZM56.6 3.4L56.6 3.4 53.1-4Q65.7-7.7 76.55-14.25L76.55-14.25Q85.75-20.1 85.75-23.9L85.75-23.9Q85.75-24.5 85.35-25.05L85.35-25.05Q84.85-25.8 75.15-25.8L75.15-25.8Q69.75-25.8 54.15-24.05L54.15-24.05 54.15-31.85Q62.1-32.75 68.75-33.05L68.75-33.05Q68.35-35.3 67.6-37.4L67.6-37.4 75.6-38.4Q76.5-36.1 77.3-33.35L77.3-33.35Q85.6-33.35 89.1-32.7 92.6-32.05 93.55-29.4L93.55-29.4Q94.2-27.75 94.2-25.85L94.2-25.85Q94.2-24.7 93.85-22.45 93.5-20.2 91.15-16.68 88.8-13.15 82.55-8.8L82.55-8.8Q79.4-6.75 75.3-4.9L75.3-4.9Q76.65-4.6 80.2-4.6L80.2-4.6Q80.55-4.6 84.8-4.63 89.05-4.65 97.4-5.95L97.4-5.95 97.2 2.35Q89.65 3.25 82.25 3.3L82.25 3.3Q75.5 3.3 72.15 2.8L72.15 2.8Q69.65 2.35 65.9 0.05L65.9 0.05Q60.55 2.5 56.6 3.4ZM121.6-21.45L121.6-21.45Q121.55-23.2 121.6-25.95L121.6-25.95Q110.3-25.7 104.25-25.55L104.25-25.55 104.05-32.6Q110.9-32.75 121.6-33.05L121.6-33.05Q121.6-35.9 121.45-38.65L121.45-38.65 128.95-38.6Q129.15-37.75 129.2-33.4L129.2-33.4Q139.95-33.75 146.15-33.85L146.15-33.85 146.7-26.85Q144.15-26.75 129.3-26.25L129.3-26.25Q129.3-25.7 129.3-22.85L129.3-22.85 129.3-21.7Q138.75-22.05 143.3-22.2L143.3-22.2 143.6-15Q141.45-14.9 125.95-14.6L125.95-14.6Q113.05-14.3 107.35-14.15L107.35-14.15 107.35-21.25Q112.3-21.3 121.6-21.45ZM122.8-11.6L128.35-14.35Q131.8-10.8 134.2-6.65L134.2-6.65 127.6-3.75Q125.7-8.25 122.8-11.6L122.8-11.6ZM148.4-2.35L141.3 0.7Q139.65-5.6 137.1-10.75L137.1-10.75 143.5-13.25Q146.25-8.8 148.4-2.35L148.4-2.35ZM124.85 4L124.85 4Q122.8 4 120 3.65 117.2 3.3 115.75 0.9L115.75 0.9Q114.55-0.95 114.55-5.35L114.55-5.35 114.6-10.55 121.45-10.55Q121.45-7.05 121.6-5L121.6-5Q121.95-3.35 122.5-3.1L122.5-3.1Q123.15-2.75 124.85-2.75L124.85-2.75Q125.7-2.75 128.05-2.93 130.4-3.1 138-4.95L138-4.95 138.15 2.1Q133.55 3.3 129.15 3.8L129.15 3.8Q126.9 4 124.85 4ZM109.8 2.1L109.8 2.1 103-0.65Q106.25-4.3 106.9-11L106.9-11 113.2-10.1Q112.5-2.85 109.8 2.1Z" transform="translate(-2.5, 38.650001525878906)"></path></g> <!----> <!----> <!----> <!----> <!----> <!----> <!----></g></g> <g data-gra="path-slogan" fill-rule="" class="tp-slogan iconsvg-slogansvg" fill="#333" transform="translate(39.07999801635742,48.70000076293945)"><!----> <!----> <g transform="scale(1, 1)"><g transform="scale(1)"><path d="M0.89-8.58L2.06-8.58L2.06-1.03L6.42-1.03L6.42 0L0.89 0L0.89-8.58ZM7.73-8.58L8.91-8.58L8.91 0L7.73 0L7.73-8.58ZM12.28-8.58L16.59-1.64L16.59-8.58L17.72-8.58L17.72 0L16.41 0L12.05-6.94L12-6.94L12 0L10.88 0L10.88-8.58L12.28-8.58ZM25.92-3.61L23.30-3.61L23.30-4.59L27.05-4.59L27.05 0L26.30 0L26.02-1.08Q25.03 0.09 23.20 0.14L23.20 0.14Q21.47 0.14 20.53-0.75L20.53-0.75Q19.13-2.06 19.17-4.36L19.17-4.36Q19.50-8.63 23.25-8.81L23.25-8.81Q26.44-8.63 26.91-6L26.91-6L25.78-6Q25.31-7.78 23.20-7.83L23.20-7.83Q20.53-7.64 20.39-4.31L20.39-4.31Q20.39-0.75 23.25-0.75L23.25-0.75Q24.28-0.75 25.03-1.31L25.03-1.31Q25.97-2.06 25.92-3.61L25.92-3.61ZM33-1.03L38.30-1.03L38.30 0L31.55 0L31.55-0.94L36.80-7.59L31.92-7.59L31.92-8.58L38.30-8.58L38.30-7.59L33-1.03ZM40.59-5.06L45.09-5.06L45.09-8.58L46.27-8.58L46.27 0L45.09 0L45.09-3.98L40.59-3.98L40.59 0L39.42 0L39.42-8.58L40.59-8.58L40.59-5.06ZM48.23-8.58L49.41-8.58L49.41 0L48.23 0L48.23-8.58ZM52.22-1.03L57.52-1.03L57.52 0L50.77 0L50.77-0.94L56.02-7.59L51.14-7.59L51.14-8.58L57.52-8.58L57.52-7.59L52.22-1.03ZM59.81-5.06L64.31-5.06L64.31-8.58L65.48-8.58L65.48 0L64.31 0L64.31-3.98L59.81-3.98L59.81 0L58.64 0L58.64-8.58L59.81-8.58L59.81-5.06ZM67.45-8.58L68.63-8.58L68.63 0L67.45 0L67.45-8.58Z" transform="translate(-0.890625, 8.8125)"></path></g></g></g></g></g><defs v-gra="od"></defs></svg>